PathFileType   4   (X/Y/Z)
DataRate  CameraRate  NumFrames  NumMarkers  Units  OrigDataRate  OrigDataStartFrame  OrigNumFrames  
  120.0      120.0        9         37         mm      120.0          92        105
Frame#      Time                    midhip                           hip_r                           hip_l                          knee_r                          knee_l                         ankle_r                         ankle_l                         midasis                          asis_r                          asis_l                          psis_r                          psis_l                    epicondLat_r                    epicondLat_l                    epicondMed_r                    epicondMed_l                  malleolusLat_r                  malleolusLat_l                 malleolusMedv_r                 malleolusMedv_l                    sternalnotch                  xyphoidprocess                            neck                           toe_r                           toe_l                     thighwand_r                     thighwand_l                     upperleg1_r                     upperleg1_l                     upperleg2_r                     upperleg2_l                     shankwand_r                     shankwand_l                     lowerleg1_r                     lowerleg1_l                   subclavicle_r                   subclavicle_l            
              X1          Y1          Z1          X2          Y2          Z2          X3          Y3          Z3          X4          Y4          Z4          X5          Y5          Z5          X6          Y6          Z6          X7          Y7          Z7          X8          Y8          Z8          X9          Y9          Z9          X10          Y10          Z10          X11          Y11          Z11          X12          Y12          Z12          X13          Y13          Z13          X14          Y14          Z14          X15          Y15          Z15          X16          Y16          Z16          X17          Y17          Z17          X18          Y18          Z18          X19          Y19          Z19          X20          Y20          Z20          X21          Y21          Z21          X22          Y22          Z22          X23          Y23          Z23          X24          Y24          Z24          X25          Y25          Z25          X26          Y26          Z26          X27          Y27          Z27          X28          Y28          Z28          X29          Y29          Z29          X30          Y30          Z30          X31          Y31          Z31          X32          Y32          Z32          X33          Y33          Z33          X34          Y34          Z34          X35          Y35          Z35          X36          Y36          Z36          X37          Y37          Z37          

	92	0.88333	2173.152	763.962	-277.746	2164.297	760.119	-221.136	2182.006	767.806	-334.357	2066.467	430.893	-216.598	2258.109	423.452	-337.644	2019.017	68.860	-237.412	2316.725	74.158	-341.519	2210.113	834.910	-267.881	2208.533	833.114	-156.408	2211.692	836.707	-379.355	2035.321	869.448	-243.019	2040.074	867.225	-296.158	2097.497	417.218	-156.688	2278.575	422.169	-396.434	2087.851	424.136	-276.508	2276.003	418.253	-279.514	2012.275	67.892	-200.535	2304.487	72.993	-375.886	2019.761	65.031	-270.852	2318.574	74.876	-308.014	2221.950	1179.973	-280.500	2219.705	1077.992	-286.594	2122.472	1260.667	-269.407	2097.723	47.414	-226.390	2405.577	70.857	-355.419	2241.769	540.233	-175.659	2329.010	595.902	-407.227	2191.032	585.942	-144.325	2290.263	631.288	-343.023	2168.990	530.831	-150.196	2302.247	573.805	-335.690	2157.616	161.976	-202.451	2277.647	175.625	-463.031	2078.609	161.665	-222.391	2292.411	166.179	-385.750	2225.017	1177.961	-224.113	2224.603	1181.711	-330.758
	93	0.89167	2182.187	762.597	-277.830	2173.275	758.864	-221.221	2191.098	766.329	-334.439	2073.092	430.231	-216.598	2264.878	421.761	-338.114	2019.570	69.355	-237.369	2342.053	75.217	-342.789	2219.306	833.550	-268.085	2217.622	831.896	-156.576	2220.989	835.203	-379.594	2044.371	868.511	-243.531	2050.661	866.069	-296.494	2102.537	416.753	-156.702	2287.870	421.167	-396.874	2094.753	422.869	-276.060	2281.663	415.533	-281.314	2012.774	68.492	-200.499	2329.876	73.570	-377.158	2020.229	65.791	-270.827	2344.718	75.791	-309.496	2230.870	1178.818	-280.942	2228.975	1076.814	-286.771	2131.296	1259.064	-270.182	2097.951	47.441	-226.445	2431.289	75.287	-356.103	2248.485	538.415	-175.269	2337.924	594.098	-407.193	2198.308	584.754	-144.482	2298.373	628.938	-342.996	2176.095	529.988	-150.082	2309.848	571.296	-335.910	2159.327	160.675	-202.299	2298.270	175.210	-464.172	2080.648	161.255	-221.972	2314.342	167.113	-386.174	2234.082	1176.959	-224.501	2233.394	1180.439	-331.268
	94	0.90000	2191.325	761.226	-277.932	2182.362	757.615	-221.324	2200.289	764.836	-334.541	2079.765	429.589	-216.546	2273.882	419.702	-338.398	2020.123	69.901	-237.271	2366.340	76.691	-344.044	2228.561	832.167	-268.328	2226.780	830.680	-156.768	2230.342	833.654	-379.889	2053.500	867.447	-244.098	2061.137	864.855	-296.948	2107.762	416.292	-156.687	2297.129	420.094	-397.251	2101.525	421.910	-275.610	2287.948	413.074	-282.523	2013.297	69.146	-200.405	2354.279	74.606	-378.430	2020.801	66.159	-270.705	2368.809	77.652	-310.758	2239.717	1177.387	-281.698	2237.856	1075.368	-287.279	2140.046	1257.674	-270.840	2098.179	47.494	-226.462	2455.791	80.134	-356.599	2255.265	536.572	-174.924	2347.411	592.387	-407.099	2205.546	583.695	-144.324	2306.464	626.793	-343.250	2183.140	529.064	-149.802	2317.715	568.732	-336.038	2161.108	159.386	-202.160	2318.244	175.211	-465.328	2082.390	160.861	-221.936	2334.455	167.884	-387.400	2242.937	1175.661	-225.098	2242.234	1178.890	-332.183
	95	0.90833	2200.621	759.844	-278.125	2191.610	756.344	-221.517	2209.633	763.344	-334.733	2085.738	429.212	-216.471	2286.303	417.502	-338.506	2020.678	70.517	-237.110	2389.457	78.443	-345.243	2237.881	830.785	-268.616	2236.007	829.470	-157.000	2239.754	832.100	-380.232	2062.706	866.269	-244.698	2071.260	863.602	-297.538	2113.187	415.845	-156.649	2306.416	418.992	-397.550	2107.299	421.194	-274.671	2296.230	410.510	-283.300	2013.854	69.870	-200.242	2377.557	75.972	-379.661	2021.407	66.799	-270.579	2391.791	79.609	-311.977	2248.506	1175.786	-282.779	2246.476	1073.786	-288.614	2148.939	1256.225	-271.254	2098.419	47.582	-226.431	2478.953	85.197	-356.919	2262.154	534.725	-174.618	2357.384	590.809	-406.932	2212.586	582.371	-143.934	2314.297	624.429	-343.056	2189.935	528.231	-149.219	2325.838	566.668	-335.759	2162.961	158.097	-202.063	2337.488	175.549	-466.477	2084.186	161.104	-222.114	2353.841	168.860	-388.394	2251.796	1173.925	-226.540	2250.960	1177.402	-332.911
	96	0.91667	2210.032	758.464	-278.422	2200.981	755.049	-221.815	2219.084	761.879	-335.029	2092.857	428.221	-216.396	2299.736	416.724	-338.550	2021.246	71.226	-236.879	2411.281	80.323	-346.334	2247.262	829.418	-268.944	2245.298	828.263	-157.289	2249.226	830.573	-380.599	2071.984	865.001	-245.314	2080.864	862.326	-298.266	2118.835	415.413	-156.603	2315.810	417.901	-397.778	2114.240	419.825	-273.624	2305.719	407.546	-285.832	2014.463	70.685	-200.002	2399.581	77.525	-380.795	2022.054	67.605	-270.396	2413.579	81.689	-313.099	2257.415	1174.520	-283.588	2255.505	1072.534	-289.722	2157.830	1254.753	-271.764	2098.680	47.711	-226.351	2500.664	90.237	-357.074	2269.204	532.895	-174.358	2367.621	589.362	-406.711	2219.930	581.002	-143.772	2322.329	622.325	-342.091	2197.448	527.550	-148.733	2334.333	564.997	-335.502	2164.880	156.785	-202.034	2355.940	176.123	-467.585	2086.246	161.430	-222.252	2372.519	169.651	-389.501	2260.989	1172.503	-227.653	2259.616	1176.280	-333.446
	97	0.92500	2219.543	757.079	-278.774	2210.454	753.725	-222.169	2228.633	760.434	-335.378	2102.184	426.339	-216.332	2310.190	416.184	-338.617	2021.835	72.051	-236.580	2431.694	82.177	-347.264	2256.700	828.073	-269.301	2254.642	827.052	-157.639	2258.758	829.094	-380.962	2081.338	863.676	-245.959	2090.149	861.010	-299.082	2124.739	414.983	-156.566	2325.390	416.861	-397.959	2123.874	417.939	-273.612	2313.125	405.297	-288.181	2015.137	71.614	-199.686	2420.221	79.114	-381.779	2022.476	68.652	-270.137	2433.799	84.025	-314.063	2266.418	1173.442	-284.169	2264.781	1071.431	-289.938	2166.596	1253.476	-272.585	2098.967	47.881	-226.221	2520.836	94.993	-357.094	2276.455	531.097	-174.160	2377.864	588.031	-406.440	2227.601	580.059	-143.880	2330.793	620.839	-341.584	2205.878	527.029	-148.717	2342.712	563.196	-335.425	2166.863	155.434	-202.095	2373.544	176.822	-468.605	2088.296	161.514	-222.082	2390.128	170.621	-390.804	2270.219	1171.627	-228.063	2268.417	1175.040	-334.220
	98	0.93333	2229.093	755.722	-279.129	2219.957	752.418	-222.529	2238.229	759.026	-335.729	2110.128	425.687	-216.295	2319.414	413.379	-338.747	2022.450	73.013	-236.224	2450.579	83.852	-347.997	2266.191	826.754	-269.673	2264.035	825.832	-158.046	2268.348	827.676	-381.299	2090.762	862.326	-246.655	2099.448	859.617	-299.919	2130.927	414.533	-156.549	2335.224	415.908	-398.122	2132.494	417.299	-274.828	2318.856	404.836	-285.720	2015.881	72.675	-199.306	2439.343	80.585	-382.571	2022.866	69.755	-269.807	2452.264	86.374	-314.835	2275.524	1172.103	-285.290	2274.035	1070.058	-290.475	2175.515	1252.108	-273.959	2099.284	48.091	-226.046	2539.401	99.201	-357.010	2283.930	529.342	-174.041	2387.774	586.764	-406.157	2235.390	579.122	-144.137	2339.597	619.138	-342.321	2213.651	526.216	-149.180	2350.829	561.807	-334.945	2168.923	154.037	-202.260	2390.239	177.532	-469.487	2090.369	161.562	-221.942	2406.442	172.082	-391.941	2279.370	1170.609	-228.995	2277.482	1173.422	-335.534
	99	0.94167	2238.670	754.392	-279.489	2229.478	751.123	-222.896	2247.862	757.661	-336.081	2114.486	427.554	-216.299	2325.996	412.185	-338.931	2023.101	74.130	-235.821	2467.822	85.205	-348.509	2275.735	825.468	-270.046	2273.473	824.604	-158.490	2277.997	826.332	-381.602	2100.235	861.002	-247.400	2109.155	858.115	-300.714	2137.424	414.042	-156.561	2345.366	415.072	-398.291	2136.948	418.708	-275.634	2323.008	403.651	-286.853	2016.703	73.887	-198.871	2456.825	81.796	-383.145	2023.300	70.911	-269.407	2468.827	88.113	-315.320	2284.563	1170.646	-286.487	2283.101	1068.594	-291.535	2184.515	1250.660	-275.513	2099.632	48.336	-225.835	2556.305	102.628	-356.844	2291.638	527.637	-174.007	2397.210	585.544	-405.849	2243.733	577.770	-144.224	2348.804	617.508	-342.918	2220.367	524.936	-149.500	2358.813	560.047	-335.380	2171.080	152.597	-202.523	2405.965	178.137	-470.188	2092.640	161.462	-221.783	2421.430	173.243	-392.676	2288.475	1169.230	-230.269	2286.462	1171.898	-336.659
	100	0.95000	2248.284	753.100	-279.874	2239.030	749.839	-223.291	2257.538	756.361	-336.457	2119.348	428.994	-216.335	2332.288	413.608	-339.117	2023.806	75.417	-235.378	2483.334	86.109	-348.789	2285.335	824.231	-270.420	2282.960	823.385	-158.950	2287.709	825.076	-381.889	2109.762	859.729	-248.194	2119.212	856.541	-301.460	2144.252	413.486	-156.606	2355.844	414.366	-398.468	2141.566	419.631	-275.628	2329.292	401.602	-292.294	2017.613	75.263	-198.393	2472.568	82.618	-383.490	2023.665	72.473	-268.980	2483.895	89.296	-315.603	2293.392	1169.373	-287.332	2292.008	1067.316	-292.310	2193.362	1249.263	-276.689	2100.018	48.616	-225.596	2571.521	105.095	-356.607	2299.586	525.993	-174.049	2406.312	584.378	-405.571	2252.249	576.415	-144.230	2358.625	616.620	-342.834	2227.385	523.580	-149.556	2367.762	558.349	-336.704	2173.353	151.122	-202.862	2420.664	178.525	-470.688	2095.117	161.369	-221.406	2435.558	174.012	-393.208	2297.451	1168.003	-231.348	2295.160	1170.588	-337.287
